<mxfile host="65bd71144e">
    <diagram id="rcGqnR2wrkeU1E8sdzls" name="Page-1">
        <mxGraphModel dx="1082" dy="539" grid="0" gridSize="10" guides="0" tooltips="1" connect="0" arrows="0" fold="1" page="0" pageScale="1" pageWidth="850" pageHeight="1100" math="0" shadow="0">
            <root>
                <mxCell id="0"/>
                <mxCell id="1" parent="0"/>
                <mxCell id="18" value="" style="shape=stencil(lVlJchsxDHyNriiS4Hp2nH+4ynKsimO5ZGf7fTClcBKCYs/wpgU9BMBGE+Ac+O79+eHteHDm/eNy/nr8eXr8eD7wp4Nzp9fn4+X0IZ8OfH/gu6fz5fjlcv7++nj9/vawWC6fvp1/LE/4dcUZMmYBOfP7+oM160+fr4CX02sDyGkK4KiEBlAKmTi2D5Raj0omZ8f2iax6fqIInl8oKvtIOY/trSOOGmAKAARyuQUEYhCBTVRKC/CUGKTUkM8awB4AHCUVA9dtuQ0QB6wGJASI5MMUQILuXIKAQm4KwIZ4yiW25HkK4Ch0WUJpZSbOUwBPZs4lTz5pAINyEEBULjmygN43AIYcYGvvUk7EQDH6oDOTQ4AurSkTO7hx2bcAJoN3mltViqmuOeJSbtkaLSXkkqXQuhTWkhoB/oa4Amyt8hHAtmz1iTJeQR0OHuuSVFxuhcxLGtDGGUrtxvFa5SNAbLnEqUY1AoR2H4RdBa/gFUCogVdQMrM4iVdQALfB1h4QyaYpgCeHV3At+Zyt5/wIYNsStQWeQAIwLVttpIjahlKZswIYuiSA0JLPSkmBoAXASirJgpJe/m6zGquKjOxNay/KCYS1fz6Txf7rgPFZ0rHCYhZ1imTqgiMVNlHZQ9UWMSnKHjWSHKta7bQvmnLYXrTKmxl7ppBm7ANFnrFP+tzcsBf+zPgfTD2Qdto7XfMb9qzbqQ17X8t1p32oArLTPlLIM/aJwgzfQqYwFa/ozwz/o9EN8Ia9ndsvsS9T/jjd4mzYc20edtpL36j9QXoSA1mtVwnoudirRhb3TzHq/kl6d9AYiD238eLzQux96781lYE7F5DR0+AVVASSIjSZSoqUREsMDM4MAejuyZEHh1i/aZzrcDtiRVZdLB6hehqJUHoUtCfbxhDWR4yIra44RAoKiqGrhKWW8AqxlUbZSoPSynoyjaUmegRQh19y5NBOy0jWpjWFrfLXgPXqZi+gwLmxB2QLRygBWAVY07AXECpZ9roUYVPab9zGsCwANcoKAHKpq4ec64XVqERV3ygAdAHWC5m4lFAM3V1QxlOdkDl2aWUwmSarz2bZOKStifUVW8Zzo7BfdTsCQFIp7FfXhEI+1F8L+63TADSZZqMb5ozFePk7a4ABaRUHcldx6IyTrKt7FAFEBIi6yduoaWFO6QAOAUol805AMXVs2ulSsbpx2wi6uHqhtjOthesV+c6NK76OujupUYI+FAWQAflK1N3nhraWpJsTAaBTtORu43DFCUBLJa7p0nXoG6ohAM3WNQ23r/5N9wJGEOieUJYoKq9YK29ELYNNsxHy4d/7oafTy8v19dL//+v3SfLT9V0U3/8B);fillColor=none;" vertex="1" parent="1">
                    <mxGeometry x="26.841140747070312" y="230.84373474121094" width="96.11110941569007" height="53.33332824707031" as="geometry"/>
                </mxCell>
                <mxCell id="19" value="" style="shape=stencil(fVTLbsMwDPuaXAlZfsnnrvuPAk2XYF1TpN3r7+fAaBeljW+KQtoCSauxm0u3O7cN0+U6Du/td7+/do19aZj7U9eO/TVXjd02dnMYxvZtHD5P+/J93k3IqfoYvqYTfgqPQDSRmH5LIwl86bwW/LE/zfAOwgovAhfX8YIQFT56BLeONxYkihAMvK8QPCgogs8zpgohgfUNjiFhncB8O+9GsHQb8jkhwBtFMAKpiJrPi1rVBOIK3iJaPRHIVPAR1iv83fbnJjOMdo3BFYWcwGiFBFwJhX9IURaIKiYHRvBLC8SuEyLBLUz2MBWJYkTUnvkEV9FIHJLTyc6qVVKRCFYHVSxcRdUUl6omD1dLNj285lnr+R33YK6+/1z8L49DfzyW3TP/v1w2uVUWld3+AQ==);fillColor=none;" vertex="1" parent="1">
                    <mxGeometry x="51.84114074707031" y="251.36456108093262" width="17.291664123535156" height="13.854166030883789" as="geometry"/>
                </mxCell>
                <mxCell id="20" value="" style="shape=stencil(hVXLbsIwEPyaXEf2rp9nSv8DiVCiUoKAvv6+jqJQ1gnLzXF2nB3PTLbh1WW/ObUNmcv13L+33932um/4pSHqjvv23F3LquF1w6tdf27fzv3ncTs+nzZD5bD66L+GE35GnDUGxgwwMr/j1m3jdQQcuuMdIAe4LOotUlLqCYFFvZ82FutTRI7yfDd9cRngQFYAiODdY0BMIMmAHbxVAAwjKbgIq3AOETFIzhkpKIDSsRQh6hx8RJIcEsMqsnmuSWcL7x8DXEJIEpDgFR1cgPFSOKNbyTEcyU9ksALgDCe9MbhREYI9vFSu2JEU1lwuRbJOaRJ/EUCxtvcTIciBnZQ6wineKPmq7jWWxCkt2Zn7QgApLVkPW0VUt6tlJCmcLyHUWpr5290MvAywU8BuAIOkCFcals54luk6P5SmE5YTWvuCSqC0gIKkBjbDKP0wchWegKxphljVF9sp9zP7yxdJgpKceX3dT1n8D5VddziMM+n+fT2EytY4wHj9Bw==);fillColor=none;" vertex="1" parent="1">
                    <mxGeometry x="81.00779724121094" y="251.67706298828125" width="15.833343505859375" height="14.791666030883789" as="geometry"/>
                </mxCell>
                <mxCell id="22" value="SHORT BUTTON RELEASE = IF PreviuousTrigger(none -&amp;gt; short) and TriggerNow(short -&amp;gt; none)&lt;br&gt;" style="text;html=1;align=center;verticalAlign=middle;resizable=0;points=[];autosize=1;strokeColor=none;fillColor=none;" vertex="1" parent="1">
                    <mxGeometry x="-10" y="330" width="528" height="18" as="geometry"/>
                </mxCell>
                <mxCell id="23" value="&lt;span style=&quot;color: rgb(240 , 240 , 240) ; font-family: &amp;#34;helvetica&amp;#34; ; font-size: 12px ; font-style: normal ; font-weight: 400 ; letter-spacing: normal ; text-align: center ; text-indent: 0px ; text-transform: none ; word-spacing: 0px ; background-color: rgb(42 , 42 , 42) ; display: inline ; float: none&quot;&gt;SHORT BUTTON PRESS = IF TriggerNow(short -&amp;gt; none)&lt;/span&gt;" style="text;whiteSpace=wrap;html=1;" vertex="1" parent="1">
                    <mxGeometry x="-5.000764770507814" y="302.9992352294922" width="540" height="28" as="geometry"/>
                </mxCell>
            </root>
        </mxGraphModel>
    </diagram>
</mxfile>